<?xml version="1.0" standalone="no"?>
<!DOCTYPE svg PUBLIC "-//W3C//DTD SVG 20010904//EN"
 "http://www.w3.org/TR/2001/REC-SVG-20010904/DTD/svg10.dtd">
<svg version="1.0" xmlns="http://www.w3.org/2000/svg"
 width="2000.000000pt" height="2000.000000pt" viewBox="0 0 2000.000000 2000.000000"
 preserveAspectRatio="xMidYMid meet">

<g transform="translate(0.000000,2000.000000) scale(0.100000,-0.100000)"
fill="#000000" stroke="none">
<path d="M5083 18530 c-26 -11 -39 -29 -178 -275 -59 -104 -169 -296 -244
-425 -76 -129 -227 -390 -336 -580 -109 -190 -285 -493 -390 -675 -105 -181
-215 -373 -245 -425 -29 -52 -121 -212 -205 -355 -84 -143 -209 -360 -279
-482 -69 -122 -179 -313 -244 -425 -65 -112 -208 -358 -317 -548 -109 -190
-285 -493 -390 -675 -105 -181 -206 -357 -225 -390 -18 -33 -122 -213 -231
-400 -108 -187 -275 -475 -370 -640 -251 -437 -619 -1075 -868 -1505 -120
-206 -241 -418 -271 -470 -29 -52 -69 -118 -87 -147 -62 -94 -62 -132 0 -226
19 -29 67 -110 107 -182 40 -71 160 -278 265 -460 201 -346 420 -726 800
-1385 125 -217 316 -548 424 -735 109 -187 213 -367 231 -400 18 -33 120 -208
225 -390 106 -181 371 -642 591 -1023 219 -381 486 -842 592 -1025 106 -183
219 -377 249 -432 31 -55 143 -248 248 -430 105 -181 281 -485 390 -675 109
-190 260 -451 335 -580 76 -129 192 -332 259 -450 68 -118 131 -224 142 -235
20 -20 33 -20 4939 -20 4906 0 4919 0 4939 20 11 11 74 117 142 235 67 118
159 278 204 355 75 128 153 263 563 975 74 129 196 341 272 470 75 129 161
278 190 330 29 52 122 212 205 355 84 143 197 339 252 435 54 96 168 294 253
440 84 146 236 409 338 585 383 664 640 1109 797 1380 90 154 233 402 318 550
85 149 246 428 357 620 111 193 272 471 357 619 85 147 207 359 272 470 65
110 168 289 230 396 62 107 121 210 133 228 27 43 27 101 0 144 -12 18 -71
121 -133 228 -61 107 -165 286 -230 396 -65 111 -187 323 -272 470 -85 148
-246 427 -357 619 -111 193 -272 472 -357 620 -85 149 -228 396 -318 550 -182
314 -519 898 -800 1385 -103 179 -211 366 -240 415 -28 50 -121 210 -206 358
-85 147 -234 406 -333 575 -98 169 -210 363 -249 432 -39 69 -132 231 -207
360 -76 129 -198 341 -272 470 -410 712 -488 847 -563 975 -45 77 -137 237
-204 355 -68 118 -131 224 -142 235 -19 20 -34 20 -4927 22 -2849 1 -4916 -2
-4929 -7z m9720 -672 c74 -128 204 -352 288 -498 84 -146 226 -393 317 -550
90 -157 234 -406 319 -555 86 -148 192 -333 238 -410 45 -77 122 -210 170
-295 48 -85 168 -292 265 -460 98 -168 271 -467 385 -665 299 -518 590 -1024
750 -1300 77 -132 197 -341 268 -465 71 -124 202 -351 292 -505 89 -154 256
-442 370 -640 114 -198 298 -517 409 -710 111 -192 261 -452 334 -577 l131
-228 -131 -227 c-73 -126 -223 -385 -334 -578 -111 -192 -295 -512 -409 -710
-114 -198 -281 -486 -370 -640 -90 -154 -221 -381 -292 -505 -71 -124 -191
-333 -268 -465 -160 -276 -451 -782 -750 -1300 -114 -198 -287 -497 -385 -665
-97 -168 -217 -375 -265 -460 -48 -85 -125 -218 -170 -295 -46 -77 -152 -261
-238 -410 -85 -148 -229 -398 -319 -555 -91 -157 -233 -404 -317 -550 -84
-146 -214 -370 -288 -497 l-135 -233 -4668 0 -4668 0 -115 198 c-63 108 -136
235 -163 282 -26 47 -118 207 -204 355 -87 149 -262 452 -390 675 -128 223
-304 527 -390 675 -87 149 -188 324 -225 390 -37 66 -148 257 -245 425 -98
168 -271 467 -385 665 -261 453 -570 989 -750 1300 -77 132 -197 341 -268 465
-71 124 -202 351 -292 505 -89 154 -256 442 -370 640 -114 198 -298 518 -409
710 -111 193 -261 452 -334 578 l-131 227 131 228 c73 125 213 369 313 542
100 173 285 493 410 710 125 217 301 522 392 677 90 156 221 383 291 505 70
123 190 331 267 463 180 311 489 847 750 1300 114 198 287 497 385 665 98 168
199 343 225 390 26 47 130 227 230 400 101 173 285 493 410 710 126 217 298
517 385 665 86 149 178 308 204 355 27 47 100 174 163 283 l115 197 4668 0
4668 0 135 -232z"/>
<path d="M11400 17235 c-25 -6 -64 -22 -88 -34 -29 -15 -1089 -1068 -3391
-3369 -3622 -3620 -3418 -3411 -3581 -3682 -167 -277 -288 -620 -342 -963 -29
-191 -36 -526 -14 -717 43 -371 152 -703 330 -1004 24 -41 106 -164 182 -273
76 -109 199 -286 273 -393 174 -252 223 -313 345 -436 250 -249 562 -420 889
-486 129 -26 431 -33 552 -13 169 27 212 38 355 91 178 67 364 174 530 307 41
33 683 667 1425 1408 956 955 1361 1353 1387 1364 21 8 57 15 80 15 47 0 133
-36 159 -66 53 -61 265 -377 282 -419 25 -65 26 -166 1 -236 -17 -51 -115
-151 -1855 -1894 -1422 -1425 -1843 -1852 -1867 -1895 -56 -101 -75 -186 -70
-313 7 -178 -9 -149 405 -744 95 -137 222 -320 283 -408 129 -186 184 -246
260 -283 48 -23 67 -26 150 -26 174 0 -43 -202 2256 2097 2212 2213 2118 2115
2278 2390 185 318 312 723 347 1101 17 184 7 516 -21 676 -70 409 -185 694
-422 1044 -192 285 -436 633 -497 712 -118 150 -323 334 -489 438 -117 73
-315 158 -455 195 -228 60 -484 68 -732 25 -184 -32 -440 -136 -620 -251 -173
-112 -255 -191 -1590 -1523 -748 -747 -1375 -1365 -1393 -1375 -57 -28 -121
-30 -179 -5 -28 12 -62 33 -75 48 -46 51 -337 478 -355 523 -25 61 -24 178 1
244 17 45 279 311 2438 2475 1331 1334 2423 2425 2428 2425 5 0 31 -31 57 -70
74 -106 383 -551 628 -905 376 -541 937 -1350 1155 -1665 92 -132 183 -264
204 -294 22 -30 118 -170 216 -310 97 -141 266 -384 375 -541 109 -157 286
-413 394 -570 108 -156 217 -306 242 -331 26 -26 71 -60 100 -75 48 -25 64
-28 154 -29 170 0 131 -31 798 634 318 317 594 600 613 629 60 89 87 181 88
302 2 178 -11 208 -231 525 -124 180 -1628 2347 -1818 2620 -23 33 -293 422
-600 865 -307 443 -727 1048 -933 1345 -207 297 -444 640 -529 762 -92 133
-171 236 -197 257 -93 77 -215 108 -316 81z"/>
</g>
</svg>
